<?xml version="1.0" standalone="no"?>
<!DOCTYPE svg PUBLIC "-//W3C//DTD SVG 20010904//EN"
 "http://www.w3.org/TR/2001/REC-SVG-20010904/DTD/svg10.dtd">
<svg version="1.0" xmlns="http://www.w3.org/2000/svg"
 width="150.000000pt" height="150.000000pt" viewBox="0 0 150.000000 150.000000"
 preserveAspectRatio="xMidYMid meet">

<g transform="translate(0.000000,150.000000) scale(0.100000,-0.100000)"
fill="#000000" stroke="none">
<path d="M154 1039 c-108 -26 -110 -92 -7 -190 172 -165 601 -346 946 -400
107 -16 251 -7 286 18 70 52 20 137 -148 252 -41 28 -78 51 -83 51 -23 0 -2
-32 44 -66 64 -49 76 -67 59 -88 -41 -49 -373 28 -668 154 -312 134 -421 259
-204 234 47 -5 59 -3 64 9 4 11 -4 16 -31 21 -71 12 -217 15 -258 5z"/>
</g>
</svg>
